<svg xmlns="http://www.w3.org/2000/svg" xmlns:xlink="http://www.w3.org/1999/xlink" viewBox="0 0 575.884 498.674"><defs><style>.cls-1{fill:url(#Dégradé_sans_nom_3);}.cls-2{fill:url(#Dégradé_sans_nom_54);}.cls-3{fill:url(#Dégradé_sans_nom_55);}.cls-4{opacity:0.57;}.cls-5,.cls-8{fill:none;}.cls-6,.cls-7{fill:#fff;}.cls-7{opacity:0.63;}.cls-8{stroke:#f0f;stroke-miterlimit:10;stroke-width:2.186px;}.cls-9{fill:#009245;}</style><linearGradient id="Dégradé_sans_nom_3" x1="421.879" y1="460.692" x2="207.515" y2="151.633" gradientUnits="userSpaceOnUse"><stop offset="0" stop-color="#fff"/><stop offset="1"/></linearGradient><linearGradient id="Dégradé_sans_nom_54" x1="409.085" y1="372.233" x2="664.453" y2="521.553" gradientUnits="userSpaceOnUse"><stop offset="0" stop-color="#ff0"/><stop offset="0.83" stop-color="#006837"/></linearGradient><linearGradient id="Dégradé_sans_nom_55" x1="325.784" y1="390.886" x2="414.559" y2="650.433" gradientUnits="userSpaceOnUse"><stop offset="0" stop-color="#ff0"/><stop offset="1" stop-color="#006837"/></linearGradient></defs><g id="Calque_9" data-name="Calque 9"><path class="cls-1" d="M306.907,629a161.83,161.83,0,0,1-29.366-28.722,186.875,186.875,0,0,1-22.287-35.493,200.386,200.386,0,0,1-19.635-82.907,208.067,208.067,0,0,1,38.133-123.939c2.191-2.969,4.365-5.956,6.644-8.862l3.517-4.283c1.187-1.416,2.315-2.883,3.58-4.232a219.6,219.6,0,0,1,15.524-15.848,201.154,201.154,0,0,1,76.435-44.137c1.751-.607,3.557-1.047,5.343-1.541l5.368-1.445c.889-.257,1.8-.456,2.7-.638l2.72-.573,5.436-1.132c3.646-.635,7.308-1.179,10.96-1.721q5.518-.565,11.025-1.058a187.8,187.8,0,0,1,122.829,35.4c2.809,2.17,5.573,4.381,8.335,6.56,1.4,1.055,2.679,2.29,4.006,3.443s2.619,2.345,3.911,3.53l1.938,1.771c.632.6,1.233,1.249,1.849,1.871l3.662,3.756,1.82,1.871c.609.621,1.219,1.237,1.768,1.921l3.377,3.987A163.322,163.322,0,0,1,599,370.956a260.742,260.742,0,0,0-30.5-25.745l-3.991-2.829c-1.324-.943-2.736-1.775-4.092-2.664l-4.093-2.618c-.684-.429-1.35-.88-2.045-1.291l-2.119-1.183c-1.413-.785-2.817-1.572-4.2-2.377-1.4-.782-2.744-1.643-4.207-2.319l-8.576-4.255a195.033,195.033,0,0,0-72-17.942A178.106,178.106,0,0,0,392.2,318.588a185.517,185.517,0,0,0-60.629,37.232l-1.674,1.49-1.6,1.568-3.2,3.144c-1.091,1.025-2.1,2.128-3.112,3.233l-3.061,3.286c-1.055,1.065-1.978,2.248-2.963,3.376l-2.922,3.415c-1.9,2.319-3.676,4.736-5.561,7.072a196.217,196.217,0,0,0-18.858,30.719,202.354,202.354,0,0,0-19.889,69.882,214.81,214.81,0,0,0,5.88,74.584A223.655,223.655,0,0,0,287.5,594.116,254.986,254.986,0,0,0,306.907,629Z" transform="translate(-235.57 -272.059)"/><path d="M492.925,607.1l-5.36-8.88a57.338,57.338,0,0,1-26.61,6.51c-32.03,0-58-26.19-58-58.5a58.585,58.585,0,0,1,24.48-47.75L326.647,347.16a189.629,189.629,0,0,0-72.192,149.071c0,104.93,85.07,190,190,190a189.106,189.106,0,0,0,84.31-19.69Z" transform="translate(-235.57 -272.059)"/><path d="M644.455,495.231a189.272,189.272,0,0,1-44.25,121.89l-46.53-51.74a108.627,108.627,0,0,0,17.28-59.15c0-58.27-45-105.5-100.5-105.5a96.469,96.469,0,0,0-51.48,14.88l-28.82-32.04a19.992,19.992,0,1,0-26.66-29.64l-14.86-16.52a189.126,189.126,0,0,1,105.82-32.18C559.385,305.231,644.455,390.3,644.455,495.231Z" transform="translate(-235.57 -272.059)"/><path class="cls-2" d="M635.455,485.231a189.272,189.272,0,0,1-44.25,121.89l-46.53-51.74a108.627,108.627,0,0,0,17.28-59.15c0-58.27-45-105.5-100.5-105.5a96.469,96.469,0,0,0-51.48,14.88l-28.82-32.04a19.992,19.992,0,1,0-26.66-29.64l-14.86-16.52a189.126,189.126,0,0,1,105.82-32.18C550.385,295.231,635.455,380.3,635.455,485.231Z" transform="translate(-235.57 -272.059)"/><path class="cls-3" d="M493.925,596.1l-5.36-8.88a57.338,57.338,0,0,1-26.61,6.51c-32.03,0-58-26.19-58-58.5a58.585,58.585,0,0,1,24.48-47.75L327.647,336.16a189.629,189.629,0,0,0-72.192,149.071c0,104.93,85.07,190,190,190a189.106,189.106,0,0,0,84.31-19.69Z" transform="translate(-235.57 -272.059)"/><path d="M521.955,666.731s-15.343-29.783-28.88-43.049a78.766,78.766,0,0,1-5.805-6.232,123.179,123.179,0,0,1-8.065-10.969c-3.191-4.932-12.1-20.269-7.25-25.75,1.893-2.137,5.227-2.026,6-2,5.086.169,12.622,4.06,28,37a388.375,388.375,0,0,1,16,39.957S508.04,559.731,504,544.731s-10.042-92,25.958-87c0,0,64.34-2,28.17,87s-31.17,110-31.17,110c7.8-18.838,24.381-31.328,42.2-31.723a42.062,42.062,0,0,1,20.556,5.04,18.962,18.962,0,0,1,10.262,15.416,10.692,10.692,0,0,1-1.939,7.513c-2.441,3.041-6.5,4.008-12.083,3.754-22-1-41.872-8-56.936,12Z" transform="translate(-235.57 -272.059)"/><g class="cls-4"><path class="cls-5" d="M525.345,544.513q3.841-37.609,7.682-75.219" transform="translate(-235.57 -272.059)"/><path class="cls-6" d="M525.345,544.513c-.66-3.235-1.216-6.458-1.711-9.676l-.726-4.824-.628-4.814c-.845-6.42-1.485-12.819-2.038-19.209s-.98-12.768-1.273-19.131a70.953,70.953,0,0,1,.312-9.469,41.115,41.115,0,0,1,1.9-9.306c2.438-6.318,9.008-9.688,14.794-8.16A12.55,12.55,0,0,1,544.87,470.5a51.578,51.578,0,0,1-.017,9.5,70.775,70.775,0,0,1-1.609,9.336q-2.359,9.26-5.113,18.479c-1.834,6.146-3.754,12.284-5.879,18.4l-1.589,4.588-1.685,4.578Z" transform="translate(-235.57 -272.059)"/></g><path class="cls-7" d="M542.709,468.87c.93,11.769-9.976,22.839-24.331,24.786l-.232.03c-2.612.336-5.106-.806-6.055-2.761a18.246,18.246,0,0,1-1.781-6.563c-.927-11.767,9.98-22.834,24.333-24.78.077-.01-2.765.159-2.688.149,2.611-.336,8.024.627,8.973,2.582A18.215,18.215,0,0,1,542.709,468.87Z" transform="translate(-235.57 -272.059)"/><path class="cls-6" d="M400,633.385c-45.191.287-90.007-34.971-107.357-88.548-13.1-40.46-7.388-81.626,12.022-110.681a165.135,165.135,0,0,0,.326,95.99C327.748,603.333,393,630.6,400,633.385Z" transform="translate(-235.57 -272.059)"/><circle cx="464.884" cy="306.172" r="17.5"/><path d="M745.445,632.121l-15.91-22.82a16.52,16.52,0,0,0-12.58-7.04l-9-.53-12,21-9.5-24.23-33.5.23-8.61-17.93-2.58-5.39-.81-1.68-.61.42-.44.3a9.474,9.474,0,0,0-8.51-1.21l-23.44-37.51s-6-1-5,4l23.91,36.78a9.48,9.48,0,0,0-1.91,5.72,9.658,9.658,0,0,0,.28,2.3l-.28.2,2.42,4.56.01.01,14.57,27.43h27.91l-5.91,54-16.98,24.45a16.272,16.272,0,0,0,2.25,21.15l35.73,31.4v10.6a12.264,12.264,0,0,0,11.78,12.4,12,12,0,0,0,12.22-12v-78.02l4-16.98,6.29,2.9a8.508,8.508,0,0,0,10.72-3.1l15.6-24.11A6.539,6.539,0,0,0,745.445,632.121Zm-58.99,87.4-14.97-13.51a3.812,3.812,0,0,1-.55-5.05l15.52-21.66Zm10.93-79.1a3.5,3.5,0,1,1-4.12-4.12A3.509,3.509,0,0,1,697.385,640.421Zm1.5-10.5a3.5,3.5,0,1,1-4.12-4.12A3.509,3.509,0,0,1,698.885,629.921Zm16.04,23.34,2.55-28.06,8.45,11.48Z" transform="translate(-235.57 -272.059)"/><path class="cls-8" d="M668.955,703.731" transform="translate(-235.57 -272.059)"/><polygon points="459.884 326.948 461.884 341.246 466.98 326.948 459.884 326.948"/><polygon points="575.884 403.172 575.884 411.172 569.384 411.172 569.384 498.672 482.384 498.672 482.384 411.172 467.884 411.172 467.884 403.172 575.884 403.172"/><path class="cls-9" d="M745.955,687.731h-5v5h-14v-5h-5v45.14a14.5,14.5,0,0,0,24,0Zm-5,20h-14v-6h14Z" transform="translate(-235.57 -272.059)"/><path class="cls-9" d="M745.955,739.061v5.81a14.5,14.5,0,0,1-24,0v-5.81a16.511,16.511,0,0,0,24,0Z" transform="translate(-235.57 -272.059)"/><path class="cls-9" d="M745.955,751.061v9.04c-.28.22-.56.43-.86.63a19.479,19.479,0,0,1-22.28,0c-.3-.2-.58-.41-.86-.63v-9.04a16.511,16.511,0,0,0,24,0Z" transform="translate(-235.57 -272.059)"/><path class="cls-9" d="M773.955,687.731h-5v5h-14v-5h-5v45.14a14.5,14.5,0,0,0,24,0Zm-5,20h-14v-6h14Z" transform="translate(-235.57 -272.059)"/><path class="cls-9" d="M773.955,739.061v5.81a14.5,14.5,0,0,1-24,0v-5.81a16.511,16.511,0,0,0,24,0Z" transform="translate(-235.57 -272.059)"/><path class="cls-9" d="M773.955,751.061v9.04c-.28.22-.56.43-.86.63a19.479,19.479,0,0,1-22.28,0c-.3-.2-.58-.41-.86-.63v-9.04a16.511,16.511,0,0,0,24,0Z" transform="translate(-235.57 -272.059)"/><path class="cls-9" d="M801.955,687.731h-5v5h-14v-5h-5v45.14a14.5,14.5,0,0,0,24,0Zm-5,20h-14v-6h14Z" transform="translate(-235.57 -272.059)"/><path class="cls-9" d="M801.955,739.061v5.81a14.5,14.5,0,0,1-24,0v-5.81a16.511,16.511,0,0,0,24,0Z" transform="translate(-235.57 -272.059)"/><path class="cls-9" d="M801.955,751.061v9.04c-.28.22-.56.43-.86.63a19.479,19.479,0,0,1-22.28,0c-.3-.2-.58-.41-.86-.63v-9.04a16.511,16.511,0,0,0,24,0Z" transform="translate(-235.57 -272.059)"/></g></svg>