<svg xmlns="http://www.w3.org/2000/svg" xmlns:xlink="http://www.w3.org/1999/xlink" width="1920" zoomAndPan="magnify" viewBox="0 0 1440 809.999993" height="1080" preserveAspectRatio="xMidYMid meet" version="1.0"><defs><filter x="0%" y="0%" width="100%" height="100%" id="3e2ac02d8f"><feColorMatrix values="0 0 0 0 1 0 0 0 0 1 0 0 0 0 1 0 0 0 1 0" color-interpolation-filters="sRGB"/></filter><g/><mask id="397aa9c98f"><g filter="url(#3e2ac02d8f)"><rect x="-144" width="1728" fill="#000000" y="-80.999999" height="971.999992" fill-opacity="0.9"/></g></mask><clipPath id="aa1a08d3c1"><rect x="0" width="1124" y="0" height="239"/></clipPath><mask id="0abbbafc06"><g filter="url(#3e2ac02d8f)"><rect x="-144" width="1728" fill="#000000" y="-80.999999" height="971.999992" fill-opacity="0.9"/></g></mask><clipPath id="40d1730fc3"><rect x="0" width="302" y="0" height="642"/></clipPath></defs><g mask="url(#397aa9c98f)"><g transform="matrix(1, 0, 0, 1, 18, 281)"><g clip-path="url(#aa1a08d3c1)"><g fill="#000000" fill-opacity="1"><g transform="translate(0.670823, 184.562773)"><g><path d="M 144.859375 -32.296875 L 144.859375 0 L 18.890625 0 L 18.890625 -178.40625 L 56.15625 -178.40625 L 56.15625 -32.296875 Z M 144.859375 -32.296875 "/></g></g></g><g fill="#000000" fill-opacity="1"><g transform="translate(144.281617, 184.562773)"><g><path d="M 133.921875 0 L 122.5 -36.765625 L 56.65625 -36.765625 L 44.234375 0 L 4.96875 0 L 68.578125 -178.40625 L 111.5625 -178.40625 L 174.421875 0 Z M 112.0625 -67.578125 L 89.953125 -138.15625 L 89.453125 -138.15625 L 66.59375 -67.578125 Z M 112.0625 -67.578125 "/></g></g></g><g fill="#000000" fill-opacity="1"><g transform="translate(315.47176, 184.562773)"><g><path d="M 94.671875 -146.84375 L 94.671875 0 L 57.390625 0 L 57.390625 -146.84375 L 3.484375 -146.84375 L 3.484375 -178.40625 L 148.578125 -178.40625 L 148.578125 -146.84375 Z M 94.671875 -146.84375 "/></g></g></g><g fill="#000000" fill-opacity="1"><g transform="translate(459.082569, 184.562773)"><g><path d="M 15.90625 0 L 15.90625 -178.40625 L 53.171875 -178.40625 L 53.171875 0 Z M 15.90625 0 "/></g></g></g><g fill="#000000" fill-opacity="1"><g transform="translate(519.955245, 184.562773)"><g><path d="M 96.65625 4.71875 C 80.09375 4.71875 65.347656 1.195312 52.421875 -5.84375 C 39.503906 -12.882812 29.359375 -23.441406 21.984375 -37.515625 C 14.617188 -51.597656 10.9375 -68.828125 10.9375 -89.203125 C 10.9375 -109.242188 14.578125 -126.34375 21.859375 -140.5 C 29.148438 -154.664062 39.253906 -165.3125 52.171875 -172.4375 C 65.097656 -179.5625 79.925781 -183.125 96.65625 -183.125 C 113.382812 -183.125 128.207031 -179.476562 141.125 -172.1875 C 154.050781 -164.894531 164.15625 -154.207031 171.4375 -140.125 C 178.726562 -126.050781 182.375 -109.078125 182.375 -89.203125 C 182.375 -68.992188 178.6875 -51.804688 171.3125 -37.640625 C 163.945312 -23.484375 153.757812 -12.882812 140.75 -5.84375 C 127.75 1.195312 113.050781 4.71875 96.65625 4.71875 Z M 145.109375 -89.203125 C 145.109375 -109.078125 140.675781 -124.4375 131.8125 -135.28125 C 122.945312 -146.132812 111.144531 -151.5625 96.40625 -151.5625 C 81.988281 -151.5625 70.347656 -146.132812 61.484375 -135.28125 C 52.628906 -124.4375 48.203125 -109.078125 48.203125 -89.203125 C 48.203125 -69.328125 52.59375 -53.960938 61.375 -43.109375 C 70.15625 -32.253906 81.914062 -26.828125 96.65625 -26.828125 C 111.394531 -26.828125 123.15625 -32.253906 131.9375 -43.109375 C 140.71875 -53.960938 145.109375 -69.328125 145.109375 -89.203125 Z M 145.109375 -89.203125 "/></g></g></g><g fill="#000000" fill-opacity="1"><g transform="translate(705.059291, 184.562773)"><g><path d="M 104.359375 -37.765625 L 136.15625 -178.40625 L 190.078125 -178.40625 L 190.078125 0 L 155.296875 0 L 155.296875 -149.078125 L 154.796875 -149.078125 L 121.5 0 L 84.96875 0 L 52.421875 -149.078125 L 51.9375 -149.078125 L 51.9375 0 L 17.140625 0 L 17.140625 -178.40625 L 71.5625 -178.40625 L 103.859375 -37.765625 Z M 104.359375 -37.765625 "/></g></g></g><g fill="#000000" fill-opacity="1"><g transform="translate(903.828826, 184.562773)"><g><path d="M 78.265625 -152.3125 C 69.160156 -152.3125 61.707031 -150.363281 55.90625 -146.46875 C 50.101562 -142.582031 47.203125 -137.40625 47.203125 -130.9375 C 47.203125 -126.132812 48.566406 -122.203125 51.296875 -119.140625 C 54.035156 -116.078125 59.710938 -113.550781 68.328125 -111.5625 L 110.3125 -101.375 C 127.539062 -97.226562 139.507812 -91.265625 146.21875 -83.484375 C 152.925781 -75.703125 156.28125 -65.765625 156.28125 -53.671875 C 156.28125 -40.910156 153.175781 -30.140625 146.96875 -21.359375 C 140.757812 -12.585938 132.351562 -6.046875 121.75 -1.734375 C 111.144531 2.566406 99.132812 4.71875 85.71875 4.71875 C 62.195312 4.71875 43.8125 -0.25 30.5625 -10.1875 C 17.3125 -20.125 10.351562 -35.03125 9.6875 -54.90625 L 45.46875 -54.90625 C 45.800781 -45.800781 49.195312 -38.722656 55.65625 -33.671875 C 62.113281 -28.617188 71.304688 -26.09375 83.234375 -26.09375 C 95.328125 -26.09375 104.5625 -27.992188 110.9375 -31.796875 C 117.3125 -35.609375 120.5 -41.410156 120.5 -49.203125 C 120.5 -54.171875 118.800781 -58.0625 115.40625 -60.875 C 112.007812 -63.6875 106.335938 -66.253906 98.390625 -68.578125 C 90.441406 -70.898438 77.191406 -74.128906 58.640625 -78.265625 C 42.398438 -81.910156 30.632812 -87.707031 23.34375 -95.65625 C 16.0625 -103.613281 12.421875 -114.460938 12.421875 -128.203125 C 12.421875 -138.804688 14.945312 -148.25 20 -156.53125 C 25.050781 -164.8125 32.710938 -171.3125 42.984375 -176.03125 C 53.253906 -180.757812 65.925781 -183.125 81 -183.125 C 94.75 -183.125 106.800781 -180.757812 117.15625 -176.03125 C 127.507812 -171.3125 135.582031 -164.601562 141.375 -155.90625 C 147.175781 -147.21875 150.242188 -137.078125 150.578125 -125.484375 L 114.796875 -125.484375 C 113.140625 -143.367188 100.960938 -152.3125 78.265625 -152.3125 Z M 78.265625 -152.3125 "/></g></g></g><g fill="#000000" fill-opacity="1"><g transform="translate(1061.353583, 184.562773)"><g><path d="M 15.90625 0 L 15.90625 -36.28125 L 53.171875 -36.28125 L 53.171875 0 Z M 15.90625 0 "/></g></g></g></g></g></g><g mask="url(#0abbbafc06)"><g transform="matrix(1, 0, 0, 1, 1129, 0.000000000000039746)"><g clip-path="url(#40d1730fc3)"><g fill="#000000" fill-opacity="1"><g transform="translate(1.083543, 466.346641)"><g><path d="M 124.59375 -122.5 C 122.257812 -122.5 121.09375 -123.664062 121.09375 -126 C 124.832031 -135.332031 124.953125 -143.5 121.453125 -150.5 C 117.953125 -157.5 110.832031 -161 100.09375 -161 C 92.632812 -161 85.632812 -158.316406 79.09375 -152.953125 C 72.5625 -147.585938 66.960938 -140.117188 62.296875 -130.546875 C 57.628906 -120.984375 53.894531 -109.785156 51.09375 -96.953125 C 48.300781 -84.117188 46.90625 -70.234375 46.90625 -55.296875 C 46.90625 -32.429688 54.835938 -21 70.703125 -21 C 88.898438 -21 107.097656 -31.96875 125.296875 -53.90625 C 127.160156 -54.832031 128.789062 -54.710938 130.1875 -53.546875 C 131.59375 -52.378906 131.832031 -50.628906 130.90625 -48.296875 C 120.164062 -34.765625 108.257812 -23.210938 95.1875 -13.640625 C 82.125 -4.078125 69.296875 0.703125 56.703125 0.703125 C 46.429688 0.703125 37.910156 -3.03125 31.140625 -10.5 C 24.378906 -17.96875 21 -28.234375 21 -41.296875 C 21 -57.628906 23.679688 -73.960938 29.046875 -90.296875 C 34.410156 -106.628906 41.410156 -121.328125 50.046875 -134.390625 C 58.679688 -147.460938 68.597656 -158.082031 79.796875 -166.25 C 90.992188 -174.414062 102.425781 -178.5 114.09375 -178.5 C 123.894531 -178.5 131.59375 -176.164062 137.1875 -171.5 C 142.789062 -166.832031 145.59375 -161.234375 145.59375 -154.703125 C 145.59375 -152.367188 144.894531 -149.566406 143.5 -146.296875 C 142.101562 -143.035156 140.351562 -139.769531 138.25 -136.5 C 136.144531 -133.226562 133.8125 -130.3125 131.25 -127.75 C 128.6875 -125.1875 126.46875 -123.4375 124.59375 -122.5 Z M 124.59375 -122.5 "/></g></g></g><g fill="#000000" fill-opacity="1"><g transform="translate(143.182743, 466.346641)"><g><path d="M 113.40625 -179.203125 C 126 -179.203125 135.328125 -175 141.390625 -166.59375 C 147.460938 -158.195312 150.5 -147.234375 150.5 -133.703125 C 150.5 -117.835938 147.460938 -101.96875 141.390625 -86.09375 C 135.328125 -70.226562 127.628906 -55.878906 118.296875 -43.046875 C 108.960938 -30.210938 98.8125 -19.828125 87.84375 -11.890625 C 76.882812 -3.960938 66.738281 0 57.40625 0 C 46.195312 0 37.328125 -4.429688 30.796875 -13.296875 C 24.265625 -22.160156 21 -34.757812 21 -51.09375 C 21 -64.164062 23.566406 -78.164062 28.703125 -93.09375 C 33.835938 -108.03125 40.71875 -121.914062 49.34375 -134.75 C 57.976562 -147.582031 67.78125 -158.195312 78.75 -166.59375 C 89.71875 -175 101.269531 -179.203125 113.40625 -179.203125 Z M 71.40625 -21.703125 C 78.40625 -21.703125 85.285156 -24.148438 92.046875 -29.046875 C 98.816406 -33.953125 104.765625 -40.488281 109.890625 -48.65625 C 115.023438 -56.820312 119.109375 -66.269531 122.140625 -77 C 125.179688 -87.726562 126.703125 -98.925781 126.703125 -110.59375 C 126.703125 -124.59375 124.367188 -135.675781 119.703125 -143.84375 C 115.035156 -152.007812 107.332031 -156.09375 96.59375 -156.09375 C 89.59375 -156.09375 82.828125 -153.644531 76.296875 -148.75 C 69.765625 -143.851562 64.046875 -137.320312 59.140625 -129.15625 C 54.242188 -120.988281 50.394531 -111.421875 47.59375 -100.453125 C 44.800781 -89.484375 43.40625 -77.929688 43.40625 -65.796875 C 43.40625 -36.398438 52.738281 -21.703125 71.40625 -21.703125 Z M 71.40625 -21.703125 "/></g></g></g></g></g></g></svg>