<?xml version="1.0" standalone="no"?>
<!DOCTYPE svg PUBLIC "-//W3C//DTD SVG 20010904//EN"
 "http://www.w3.org/TR/2001/REC-SVG-20010904/DTD/svg10.dtd">
<svg version="1.0" xmlns="http://www.w3.org/2000/svg"
 width="210.000000pt" height="70.000000pt" viewBox="0 0 210.000000 70.000000"
 preserveAspectRatio="xMidYMid meet">

<g transform="translate(0.000000,70.000000) scale(0.100000,-0.100000)"
fill="#000000" stroke="none">
<path d="M485 681 c-78 -35 -160 -159 -195 -296 -23 -90 -51 -147 -69 -140
-36 14 -113 24 -141 19 -27 -6 -80 -48 -80 -64 0 -21 41 -41 77 -38 l38 4 -34
10 c-43 12 -60 36 -42 58 17 20 43 20 110 0 41 -12 51 -19 47 -31 -5 -13 -4
-13 8 -4 10 9 25 7 62 -10 97 -41 186 -35 234 16 l23 24 -39 -20 c-44 -23
-101 -20 -186 7 -47 15 -58 27 -38 39 19 12 48 81 76 176 46 163 94 229 165
229 34 0 79 -35 80 -63 0 -21 1 -21 9 -2 15 34 11 64 -10 85 -25 25 -43 25
-95 1z"/>
<path d="M1922 668 c-35 -13 -73 -40 -111 -76 -31 -32 -39 -40 -17 -20 43 39
138 88 170 88 17 0 16 -4 -11 -32 -40 -43 -54 -72 -92 -195 -45 -146 -103
-257 -170 -323 -33 -32 -43 -45 -24 -32 101 71 198 232 249 412 31 110 55 155
95 175 16 9 29 18 29 20 0 12 -70 2 -118 -17z"/>
<path d="M642 345 c-37 -31 -62 -83 -62 -129 0 -78 89 -70 141 13 64 100 5
187 -79 116z m62 -17 c31 -44 7 -132 -38 -144 -39 -10 -56 11 -56 68 0 39 5
54 25 73 30 31 49 32 69 3z"/>
<path d="M810 360 c-13 -8 -13 -10 2 -10 22 0 32 -66 20 -137 -10 -57 -5 -64
21 -35 12 13 17 37 17 86 0 93 -19 123 -60 96z"/>
<path d="M1059 357 c-8 -6 -12 -11 -10 -10 2 2 10 -2 18 -8 17 -15 17 -67 -1
-101 -20 -39 -10 -35 14 5 35 57 18 148 -21 114z"/>
<path d="M1250 361 c0 -6 4 -11 9 -11 18 0 21 -33 4 -52 -16 -18 -16 -18 7
-10 34 12 48 37 34 60 -12 19 -54 29 -54 13z"/>
<path d="M1994 351 c-34 -21 -74 -92 -74 -133 0 -14 9 -33 19 -42 40 -36 112
7 145 86 21 49 20 64 -4 88 -25 25 -46 25 -86 1z m50 -17 c25 -24 21 -97 -7
-130 -51 -59 -106 4 -77 90 17 53 54 70 84 40z"/>
<path d="M944 323 c-6 -16 -11 -56 -13 -89 -3 -67 8 -80 55 -68 l25 6 -23 12
c-19 10 -23 19 -23 61 0 28 3 62 8 78 5 19 4 27 -6 27 -7 0 -17 -12 -23 -27z"/>
<path d="M1184 310 c-15 -22 -29 -60 -31 -84 -5 -41 -3 -46 20 -57 29 -13 62
-7 92 15 18 14 18 15 -12 4 -25 -9 -35 -9 -47 1 -21 18 -21 109 0 139 8 12 13
22 10 22 -3 0 -18 -18 -32 -40z"/>
<path d="M1377 213 c-20 -20 -41 -52 -46 -71 -13 -45 6 -102 39 -120 31 -16
176 -12 205 7 l20 13 -20 -7 c-11 -4 -47 -9 -81 -12 -57 -5 -63 -4 -95 25 -30
27 -34 36 -34 79 0 39 6 58 28 86 36 47 30 47 -16 0z"/>
<path d="M128 173 c6 -2 18 -2 25 0 6 3 1 5 -13 5 -14 0 -19 -2 -12 -5z"/>
</g>
</svg>
