<?xml version="1.0" encoding="utf-8"?>
<svg xmlns:xlink="http://www.w3.org/1999/xlink" width="50" zoomAndPan="magnify" viewBox="0 0 37.5 37.499999" height="50" preserveAspectRatio="xMidYMid meet" version="1.2" baseProfile="tiny-ps" xmlns="http://www.w3.org/2000/svg">
  <title>ReachDem</title>
  <defs>
    <clipPath id="97f26d49ee">
      <path d="M 0 0 L 37.007812 0 L 37.007812 37.007812 L 0 37.007812 Z M 0 0 " />
    </clipPath>
  </defs>
  <g id="3de849ea64">
    <g>
      <path d="M 0 0 L 37.007812 0 L 37.007812 37.007812 L 0 37.007812 Z M 0 0 " fill-opacity="1" fill="#ffffff" fill-rule="nonzero" />
      <path d="M 0 0 L 37.007812 0 L 37.007812 37.007812 L 0 37.007812 Z M 0 0 " fill-opacity="1" fill="#ffffff" fill-rule="nonzero" />
    </g>
    <g fill-opacity="1" fill="#000000">
      <g transform="translate(5.572112, 19.695134)">
        <path d="M 2.421875 0 L 1.796875 -0.890625 L 1.125 -0.890625 L 1.125 0 L 0.375 0 L 0.375 -3.203125 L 1.765625 -3.203125 C 2.046875 -3.203125 2.289062 -3.15625 2.5 -3.0625 C 2.707031 -2.96875 2.867188 -2.832031 2.984375 -2.65625 C 3.097656 -2.488281 3.15625 -2.285156 3.15625 -2.046875 C 3.15625 -1.804688 3.097656 -1.597656 2.984375 -1.421875 C 2.867188 -1.253906 2.707031 -1.125 2.5 -1.03125 L 3.21875 0 Z M 2.40625 -2.046875 C 2.40625 -2.222656 2.347656 -2.359375 2.234375 -2.453125 C 2.117188 -2.546875 1.945312 -2.59375 1.71875 -2.59375 L 1.125 -2.59375 L 1.125 -1.484375 L 1.71875 -1.484375 C 1.945312 -1.484375 2.117188 -1.53125 2.234375 -1.625 C 2.347656 -1.726562 2.40625 -1.867188 2.40625 -2.046875 Z M 2.40625 -2.046875 " stroke="none" />
      </g>
    </g>
    <g fill-opacity="1" fill="#000000">
      <g transform="translate(8.936367, 19.695134)">
        <path d="M 2.75 -1.21875 C 2.75 -1.207031 2.742188 -1.144531 2.734375 -1.03125 L 0.859375 -1.03125 C 0.898438 -0.875 0.984375 -0.75 1.109375 -0.65625 C 1.234375 -0.570312 1.382812 -0.53125 1.5625 -0.53125 C 1.695312 -0.53125 1.8125 -0.550781 1.90625 -0.59375 C 2.007812 -0.632812 2.101562 -0.695312 2.1875 -0.78125 L 2.5625 -0.359375 C 2.332031 -0.0976562 1.992188 0.03125 1.546875 0.03125 C 1.273438 0.03125 1.03125 -0.0195312 0.8125 -0.125 C 0.601562 -0.226562 0.4375 -0.375 0.3125 -0.5625 C 0.195312 -0.757812 0.140625 -0.984375 0.140625 -1.234375 C 0.140625 -1.472656 0.195312 -1.6875 0.3125 -1.875 C 0.425781 -2.070312 0.582031 -2.222656 0.78125 -2.328125 C 0.988281 -2.441406 1.210938 -2.5 1.453125 -2.5 C 1.703125 -2.5 1.921875 -2.445312 2.109375 -2.34375 C 2.304688 -2.238281 2.460938 -2.085938 2.578125 -1.890625 C 2.691406 -1.703125 2.75 -1.476562 2.75 -1.21875 Z M 1.46875 -1.953125 C 1.300781 -1.953125 1.160156 -1.90625 1.046875 -1.8125 C 0.941406 -1.726562 0.878906 -1.609375 0.859375 -1.453125 L 2.0625 -1.453125 C 2.039062 -1.609375 1.972656 -1.726562 1.859375 -1.8125 C 1.753906 -1.90625 1.625 -1.953125 1.46875 -1.953125 Z M 1.46875 -1.953125 " stroke="none" />
      </g>
    </g>
    <g fill-opacity="1" fill="#000000">
      <g transform="translate(11.755933, 19.695134)">
        <path d="M 1.328125 -2.5 C 1.703125 -2.5 1.992188 -2.40625 2.203125 -2.21875 C 2.410156 -2.039062 2.515625 -1.769531 2.515625 -1.40625 L 2.515625 0 L 1.84375 0 L 1.84375 -0.3125 C 1.707031 -0.0820312 1.457031 0.03125 1.09375 0.03125 C 0.90625 0.03125 0.738281 0 0.59375 -0.0625 C 0.457031 -0.125 0.351562 -0.210938 0.28125 -0.328125 C 0.207031 -0.441406 0.171875 -0.566406 0.171875 -0.703125 C 0.171875 -0.929688 0.253906 -1.113281 0.421875 -1.25 C 0.597656 -1.382812 0.867188 -1.453125 1.234375 -1.453125 L 1.796875 -1.453125 C 1.796875 -1.609375 1.75 -1.726562 1.65625 -1.8125 C 1.5625 -1.894531 1.421875 -1.9375 1.234375 -1.9375 C 1.097656 -1.9375 0.96875 -1.914062 0.84375 -1.875 C 0.71875 -1.832031 0.609375 -1.773438 0.515625 -1.703125 L 0.265625 -2.203125 C 0.398438 -2.296875 0.5625 -2.367188 0.75 -2.421875 C 0.9375 -2.472656 1.128906 -2.5 1.328125 -2.5 Z M 1.265625 -0.4375 C 1.390625 -0.4375 1.5 -0.460938 1.59375 -0.515625 C 1.6875 -0.578125 1.753906 -0.664062 1.796875 -0.78125 L 1.796875 -1.03125 L 1.3125 -1.03125 C 1.007812 -1.03125 0.859375 -0.929688 0.859375 -0.734375 C 0.859375 -0.648438 0.894531 -0.578125 0.96875 -0.515625 C 1.039062 -0.460938 1.140625 -0.4375 1.265625 -0.4375 Z M 1.265625 -0.4375 " stroke="none" />
      </g>
    </g>
    <g fill-opacity="1" fill="#000000">
      <g transform="translate(14.60754, 19.695134)">
        <path d="M 1.515625 0.03125 C 1.253906 0.03125 1.019531 -0.0195312 0.8125 -0.125 C 0.601562 -0.226562 0.4375 -0.375 0.3125 -0.5625 C 0.195312 -0.757812 0.140625 -0.984375 0.140625 -1.234375 C 0.140625 -1.472656 0.195312 -1.6875 0.3125 -1.875 C 0.4375 -2.070312 0.601562 -2.222656 0.8125 -2.328125 C 1.019531 -2.441406 1.253906 -2.5 1.515625 -2.5 C 1.773438 -2.5 2 -2.441406 2.1875 -2.328125 C 2.382812 -2.222656 2.53125 -2.070312 2.625 -1.875 L 2.0625 -1.578125 C 1.9375 -1.796875 1.753906 -1.90625 1.515625 -1.90625 C 1.328125 -1.90625 1.171875 -1.84375 1.046875 -1.71875 C 0.929688 -1.601562 0.875 -1.441406 0.875 -1.234375 C 0.875 -1.023438 0.929688 -0.859375 1.046875 -0.734375 C 1.171875 -0.609375 1.328125 -0.546875 1.515625 -0.546875 C 1.753906 -0.546875 1.9375 -0.660156 2.0625 -0.890625 L 2.625 -0.59375 C 2.53125 -0.394531 2.382812 -0.238281 2.1875 -0.125 C 2 -0.0195312 1.773438 0.03125 1.515625 0.03125 Z M 1.515625 0.03125 " stroke="none" />
      </g>
    </g>
    <g fill-opacity="1" fill="#000000">
      <g transform="translate(17.294366, 19.695134)">
        <path d="M 1.828125 -2.5 C 2.128906 -2.5 2.375 -2.40625 2.5625 -2.21875 C 2.75 -2.039062 2.84375 -1.769531 2.84375 -1.40625 L 2.84375 0 L 2.140625 0 L 2.140625 -1.296875 C 2.140625 -1.492188 2.09375 -1.640625 2 -1.734375 C 1.914062 -1.828125 1.796875 -1.875 1.640625 -1.875 C 1.453125 -1.875 1.304688 -1.816406 1.203125 -1.703125 C 1.097656 -1.597656 1.046875 -1.4375 1.046875 -1.21875 L 1.046875 0 L 0.328125 0 L 0.328125 -3.390625 L 1.046875 -3.390625 L 1.046875 -2.203125 C 1.140625 -2.296875 1.253906 -2.367188 1.390625 -2.421875 C 1.523438 -2.472656 1.671875 -2.5 1.828125 -2.5 Z M 1.828125 -2.5 " stroke="none" />
      </g>
    </g>
    <g fill-opacity="1" fill="#000000">
      <g transform="translate(20.457219, 19.695134)">
        <path d="M 0.375 -3.203125 L 1.828125 -3.203125 C 2.179688 -3.203125 2.488281 -3.132812 2.75 -3 C 3.019531 -2.875 3.226562 -2.6875 3.375 -2.4375 C 3.53125 -2.195312 3.609375 -1.921875 3.609375 -1.609375 C 3.609375 -1.285156 3.53125 -1 3.375 -0.75 C 3.226562 -0.507812 3.019531 -0.320312 2.75 -0.1875 C 2.488281 -0.0625 2.179688 0 1.828125 0 L 0.375 0 Z M 1.796875 -0.609375 C 2.117188 -0.609375 2.375 -0.695312 2.5625 -0.875 C 2.757812 -1.050781 2.859375 -1.296875 2.859375 -1.609375 C 2.859375 -1.910156 2.757812 -2.148438 2.5625 -2.328125 C 2.375 -2.503906 2.117188 -2.59375 1.796875 -2.59375 L 1.125 -2.59375 L 1.125 -0.609375 Z M 1.796875 -0.609375 " stroke="none" />
      </g>
    </g>
    <g fill-opacity="1" fill="#000000">
      <g transform="translate(24.237996, 19.695134)">
        <path d="M 2.75 -1.21875 C 2.75 -1.207031 2.742188 -1.144531 2.734375 -1.03125 L 0.859375 -1.03125 C 0.898438 -0.875 0.984375 -0.75 1.109375 -0.65625 C 1.234375 -0.570312 1.382812 -0.53125 1.5625 -0.53125 C 1.695312 -0.53125 1.8125 -0.550781 1.90625 -0.59375 C 2.007812 -0.632812 2.101562 -0.695312 2.1875 -0.78125 L 2.5625 -0.359375 C 2.332031 -0.0976562 1.992188 0.03125 1.546875 0.03125 C 1.273438 0.03125 1.03125 -0.0195312 0.8125 -0.125 C 0.601562 -0.226562 0.4375 -0.375 0.3125 -0.5625 C 0.195312 -0.757812 0.140625 -0.984375 0.140625 -1.234375 C 0.140625 -1.472656 0.195312 -1.6875 0.3125 -1.875 C 0.425781 -2.070312 0.582031 -2.222656 0.78125 -2.328125 C 0.988281 -2.441406 1.210938 -2.5 1.453125 -2.5 C 1.703125 -2.5 1.921875 -2.445312 2.109375 -2.34375 C 2.304688 -2.238281 2.460938 -2.085938 2.578125 -1.890625 C 2.691406 -1.703125 2.75 -1.476562 2.75 -1.21875 Z M 1.46875 -1.953125 C 1.300781 -1.953125 1.160156 -1.90625 1.046875 -1.8125 C 0.941406 -1.726562 0.878906 -1.609375 0.859375 -1.453125 L 2.0625 -1.453125 C 2.039062 -1.609375 1.972656 -1.726562 1.859375 -1.8125 C 1.753906 -1.90625 1.625 -1.953125 1.46875 -1.953125 Z M 1.46875 -1.953125 " stroke="none" />
      </g>
    </g>
    <g fill-opacity="1" fill="#000000">
      <g transform="translate(27.126217, 19.695134)">
        <path d="M 3.484375 -2.5 C 3.796875 -2.5 4.039062 -2.40625 4.21875 -2.21875 C 4.394531 -2.039062 4.484375 -1.769531 4.484375 -1.40625 L 4.484375 0 L 3.78125 0 L 3.78125 -1.296875 C 3.78125 -1.492188 3.738281 -1.640625 3.65625 -1.734375 C 3.570312 -1.828125 3.457031 -1.875 3.3125 -1.875 C 3.144531 -1.875 3.007812 -1.820312 2.90625 -1.71875 C 2.8125 -1.613281 2.765625 -1.453125 2.765625 -1.234375 L 2.765625 0 L 2.046875 0 L 2.046875 -1.296875 C 2.046875 -1.679688 1.890625 -1.875 1.578125 -1.875 C 1.421875 -1.875 1.289062 -1.820312 1.1875 -1.71875 C 1.09375 -1.613281 1.046875 -1.453125 1.046875 -1.234375 L 1.046875 0 L 0.328125 0 L 0.328125 -2.46875 L 1.015625 -2.46875 L 1.015625 -2.171875 C 1.109375 -2.273438 1.21875 -2.351562 1.34375 -2.40625 C 1.476562 -2.46875 1.625 -2.5 1.78125 -2.5 C 1.957031 -2.5 2.113281 -2.460938 2.25 -2.390625 C 2.394531 -2.328125 2.507812 -2.226562 2.59375 -2.09375 C 2.695312 -2.21875 2.820312 -2.316406 2.96875 -2.390625 C 3.125 -2.460938 3.296875 -2.5 3.484375 -2.5 Z M 3.484375 -2.5 " stroke="none" />
      </g>
    </g>
  </g>
</svg>